<svg width="672" height="570" viewBox="0 0 672 570" fill="none" xmlns="http://www.w3.org/2000/svg">
<mask id="mask0_2380_42" style="mask-type:luminance" maskUnits="userSpaceOnUse" x="40" y="20" width="632" height="550">
<path fill-rule="evenodd" clip-rule="evenodd" d="M671.663 20L671.663 570L39.9999 570L39.9999 20L671.663 20Z" fill="white"/>
</mask>
<g mask="url(#mask0_2380_42)">
<path fill-rule="evenodd" clip-rule="evenodd" d="M671.3 564.047L433.539 22.5425C432.861 20.9979 431.331 20 429.641 20L282.021 20C280.331 20 278.801 20.9979 278.123 22.5425L40.3625 564.047C39.1302 566.854 41.1899 570 44.2601 570L188.09 570C189.78 570 191.31 569.002 191.988 567.457L351.934 203.178C353.422 199.787 358.241 199.787 359.729 203.178L519.675 567.457C520.353 569.002 521.882 570 523.572 570L667.402 570C670.472 570 672.532 566.854 671.3 564.047Z" fill="black"/>
<path fill-rule="evenodd" clip-rule="evenodd" d="M671.3 564.047L433.539 22.5425C432.861 20.9979 431.331 20 429.641 20L282.021 20C280.331 20 278.801 20.9979 278.123 22.5425L40.3625 564.047C39.1302 566.854 41.1899 570 44.2601 570L188.09 570C189.78 570 191.31 569.002 191.988 567.457L351.934 203.178C353.422 199.787 358.241 199.787 359.729 203.178L519.675 567.457C520.353 569.002 521.882 570 523.572 570L667.402 570C670.472 570 672.532 566.854 671.3 564.047Z" fill="#4AC959"/>
</g>
<mask id="mask1_2380_42" style="mask-type:luminance" maskUnits="userSpaceOnUse" x="0" y="0" width="632" height="550">
<path fill-rule="evenodd" clip-rule="evenodd" d="M631.663 0L631.663 550L-8.50764e-05 550L-6.10352e-05 -2.76108e-05L631.663 0Z" fill="white"/>
</mask>
<g mask="url(#mask1_2380_42)">
<path fill-rule="evenodd" clip-rule="evenodd" d="M631.3 544.047L393.539 2.54252C392.861 0.997891 391.331 -1.05052e-05 389.641 -1.05791e-05L242.021 -1.70318e-05C240.331 -1.71057e-05 238.801 0.997884 238.123 2.54251L0.362464 544.047C-0.869836 546.854 1.18992 550 4.26011 550L148.09 550C149.78 550 151.31 549.002 151.988 547.457L311.934 183.178C313.422 179.787 318.241 179.787 319.729 183.178L479.675 547.457C480.353 549.002 481.882 550 483.572 550L627.402 550C630.472 550 632.532 546.854 631.3 544.047Z" fill="black"/>
<path fill-rule="evenodd" clip-rule="evenodd" d="M631.3 544.047L393.539 2.54252C392.861 0.997891 391.331 -1.05052e-05 389.641 -1.05791e-05L242.021 -1.70318e-05C240.331 -1.71057e-05 238.801 0.997884 238.123 2.54251L0.362464 544.047C-0.869836 546.854 1.18992 550 4.26011 550L148.09 550C149.78 550 151.31 549.002 151.988 547.457L311.934 183.178C313.422 179.787 318.241 179.787 319.729 183.178L479.675 547.457C480.353 549.002 481.882 550 483.572 550L627.402 550C630.472 550 632.532 546.854 631.3 544.047Z" fill="#49AF55"/>
</g>
</svg>
